<svg width="80" height="22" viewBox="0 0 80 22" fill="none" xmlns="http://www.w3.org/2000/svg">
<path d="M0.798096 0.642051V21.0001H12.2531V17.1721H5.7571V0.642051H0.798096Z" fill="#1090CB"/>
<path d="M34.6574 10.7631C34.6574 4.64405 30.0464 0.352051 24.2464 0.352051C18.4754 0.352051 13.7774 4.64405 13.7774 10.7631C13.7774 16.8821 18.4754 21.2031 24.2464 21.2031C30.0174 21.2031 34.6574 16.8821 34.6574 10.7631ZM18.8524 10.7631C18.8524 7.13805 20.9404 4.84705 24.2464 4.84705C27.4944 4.84705 29.6114 7.13805 29.6114 10.7631C29.6114 14.3301 27.4944 16.6791 24.2464 16.6791C20.9404 16.6791 18.8524 14.3301 18.8524 10.7631Z" fill="#1090CB"/>
<path d="M46.9283 0.41005C40.8383 0.41005 36.5753 4.70205 36.5753 10.7921C36.5753 16.8821 40.8673 21.1451 46.9573 21.1451C52.3223 21.1451 55.7153 17.6361 56.7593 14.1271V9.51605H45.9713V13.1701H52.2643C51.5103 15.4611 49.7993 16.7661 47.3343 16.7661C43.7673 16.7661 41.6213 14.5621 41.6213 10.7921C41.6213 7.25405 43.7383 4.99205 46.9283 4.99205C48.7843 4.99205 50.1763 5.71705 50.9303 7.08005H56.4113C55.3383 2.90405 51.8003 0.41005 46.9283 0.41005Z" fill="#1090CB"/>
<path d="M79.5451 10.7631C79.5451 4.64405 74.9341 0.352051 69.1341 0.352051C63.3631 0.352051 58.6651 4.64405 58.6651 10.7631C58.6651 16.8821 63.3631 21.2031 69.1341 21.2031C74.9051 21.2031 79.5451 16.8821 79.5451 10.7631ZM63.7401 10.7631C63.7401 7.13805 65.8281 4.84705 69.1341 4.84705C72.3821 4.84705 74.4991 7.13805 74.4991 10.7631C74.4991 14.3301 72.3821 16.6791 69.1341 16.6791C65.8281 16.6791 63.7401 14.3301 63.7401 10.7631Z" fill="#1090CB"/>
</svg>
